# xmcd
#
# Track frame offsets:
#	150
#	15481
#	29778
#	47167
#	60777
#	75000
#	92100
#	105874
#	121462
#	143357
#	156272
#	172091
#	185491
#	202249
#
# Disc length: 2906 seconds
#
# Revision: 0
# Processed by: cddbd v1.5.2PL0 Copyright (c) Steve Scherf et al.
# Submitted via: audiograbber 1.83.01
#
DISCID=ad0b580e
DTITLE=01 - Mr Music Country 203-04
DYEAR=2013
DGENRE=Country
TTITLE0=Toby Keith - Should've been a cowboy
TTITLE1=Julianne Hough - That song in my head
TTITLE2=Joe Nichols - Brokenheartsville
TTITLE3=Sugarland - It happens
TTITLE4=Marty Stuart - Little things
TTITLE5=The Band Perry - All your life
TTITLE6=Mark Wills - Jacob's ladder
TTITLE7=Lee Ann Womack - I'll think of a reason later
TTITLE8=Jamey Johnson - In color
TTITLE9=Mark Chessnutt - Blame it on Texas
TTITLE10=Shania Twain - I ain't no quitter
TTITLE11=Billy Currington - Pretty good at drinking beer
TTITLE12=David Lee Murphy - Dust on the bottle
TTITLE13=Kathy Mattea - Walking away a winner
EXTD=
EXTT0=
EXTT1=
EXTT2=
EXTT3=
EXTT4=
EXTT5=
EXTT6=
EXTT7=
EXTT8=
EXTT9=
EXTT10=
EXTT11=
EXTT12=
EXTT13=
PLAYORDER=
